<?xml version="1.0" encoding="utf-8"?>
<!-- Generator: Adobe Illustrator 21.1.0, SVG Export Plug-In . SVG Version: 6.00 Build 0)  -->
<svg version="1.1" id="Layer_2" xmlns="http://www.w3.org/2000/svg" xmlns:xlink="http://www.w3.org/1999/xlink" x="0px" y="0px"
	 viewBox="0 0 467.4 398.9" style="enable-background:new 0 0 467.4 398.9;" xml:space="preserve">
<style type="text/css">
	.st0{fill:url(#SVGID_1_);}
	.st1{fill:url(#SVGID_2_);}
	.st2{fill:url(#SVGID_3_);}
	.st3{fill:url(#SVGID_4_);}
	.st4{fill:url(#SVGID_5_);}
	.st5{fill:url(#SVGID_6_);}
	.st6{fill:#2BAF89;}
	.st7{fill:url(#SVGID_7_);}
	.st8{opacity:0.2;fill:url(#SVGID_8_);enable-background:new    ;}
	.st9{fill:url(#SVGID_9_);}
	.st10{opacity:0.2;fill:url(#SVGID_10_);enable-background:new    ;}
	.st11{fill:url(#SVGID_11_);}
	.st12{fill:url(#SVGID_12_);}
	.st13{fill:url(#SVGID_13_);}
	.st14{fill:url(#SVGID_14_);}
	.st15{fill:#BF202E;}
	.st16{fill:url(#SVGID_15_);}
	.st17{fill:url(#SVGID_16_);}
	.st18{fill:url(#SVGID_17_);}
	.st19{fill:url(#SVGID_18_);}
	.st20{fill:url(#SVGID_19_);}
	.st21{fill:url(#SVGID_20_);}
	.st22{fill:url(#SVGID_21_);}
	.st23{opacity:0.2;fill:url(#SVGID_22_);enable-background:new    ;}
	.st24{fill:url(#SVGID_23_);}
	.st25{opacity:0.2;fill:url(#SVGID_24_);enable-background:new    ;}
	.st26{fill:url(#SVGID_25_);}
	.st27{fill:url(#SVGID_26_);}
	.st28{fill:url(#SVGID_27_);}
	.st29{fill:url(#SVGID_28_);}
	.st30{fill:url(#SVGID_29_);}
	.st31{fill:url(#SVGID_30_);}
	.st32{fill:url(#SVGID_31_);}
	.st33{fill:url(#SVGID_32_);}
	.st34{fill:url(#SVGID_33_);}
	.st35{fill:url(#SVGID_34_);}
	.st36{fill:#333399;}
	.st37{fill:#2B7853;}
	.st38{fill:url(#SVGID_35_);}
	.st39{fill:url(#SVGID_36_);}
	.st40{fill:url(#SVGID_37_);}
	.st41{fill:url(#SVGID_38_);}
	.st42{fill:url(#SVGID_39_);}
	.st43{fill:url(#SVGID_40_);}
	.st44{fill:#FFFFFF;}
	.st45{fill:url(#SVGID_41_);}
	.st46{fill:url(#SVGID_42_);}
	.st47{fill:url(#SVGID_43_);}
	.st48{fill:url(#SVGID_44_);}
	.st49{fill:url(#SVGID_45_);}
	.st50{fill:url(#SVGID_46_);}
	.st51{fill:url(#SVGID_47_);}
	.st52{fill:url(#SVGID_48_);}
	.st53{fill:url(#SVGID_49_);}
	.st54{fill:url(#SVGID_50_);}
	.st55{fill:url(#SVGID_51_);}
	.st56{fill:url(#SVGID_52_);}
	.st57{fill:url(#SVGID_53_);}
	.st58{fill:url(#SVGID_54_);}
	.st59{fill:url(#SVGID_55_);}
	.st60{fill:url(#SVGID_56_);}
	.st61{fill:url(#SVGID_57_);}
	.st62{fill:url(#SVGID_58_);}
	.st63{fill:url(#SVGID_59_);}
	.st64{fill:url(#SVGID_60_);}
	.st65{fill:url(#SVGID_61_);}
	.st66{fill:url(#SVGID_62_);}
	.st67{fill:url(#SVGID_63_);}
	.st68{fill:url(#SVGID_64_);}
	.st69{fill:url(#SVGID_65_);}
	.st70{fill:url(#SVGID_66_);}
	.st71{fill:url(#SVGID_67_);}
	.st72{fill:url(#SVGID_68_);}
	.st73{fill:url(#SVGID_69_);}
	.st74{fill:url(#SVGID_70_);}
	.st75{fill:url(#SVGID_71_);}
	.st76{fill:url(#SVGID_72_);}
	.st77{fill:url(#SVGID_73_);}
	.st78{fill:url(#SVGID_74_);}
	.st79{fill:url(#SVGID_75_);}
	.st80{fill:url(#SVGID_76_);}
	.st81{fill:url(#SVGID_77_);}
	.st82{fill:url(#SVGID_78_);}
	.st83{fill:url(#SVGID_79_);}
	.st84{fill:url(#SVGID_80_);}
	.st85{fill:url(#SVGID_81_);}
	.st86{fill:url(#SVGID_82_);}
</style>
<g>
	<g>
		<linearGradient id="SVGID_1_" gradientUnits="userSpaceOnUse" x1="257.9305" y1="30.356" x2="316.8533" y2="111.4563">
			<stop  offset="0" style="stop-color:#66B0FF"/>
			<stop  offset="0.1431" style="stop-color:#63A9F9"/>
			<stop  offset="0.3476" style="stop-color:#5C96EA"/>
			<stop  offset="0.5889" style="stop-color:#4F78D1"/>
			<stop  offset="0.8563" style="stop-color:#3E4DAE"/>
			<stop  offset="1" style="stop-color:#333399"/>
		</linearGradient>
		<polygon class="st0" points="345.7,90.5 235.3,46.8 235.3,59.9 332.4,98.3 		"/>
		<linearGradient id="SVGID_2_" gradientUnits="userSpaceOnUse" x1="235.1269" y1="70.8237" x2="281.1238" y2="134.133">
			<stop  offset="0" style="stop-color:#66B0FF"/>
			<stop  offset="0.1431" style="stop-color:#63A9F9"/>
			<stop  offset="0.3476" style="stop-color:#5C96EA"/>
			<stop  offset="0.5889" style="stop-color:#4F78D1"/>
			<stop  offset="0.8563" style="stop-color:#3E4DAE"/>
			<stop  offset="1" style="stop-color:#333399"/>
		</linearGradient>
		<polygon class="st1" points="235.3,156 321.5,104.8 235.3,70.7 		"/>
	</g>
	<g>
		
			<linearGradient id="SVGID_3_" gradientUnits="userSpaceOnUse" x1="235.3066" y1="184.332" x2="124.9446" y2="184.332" gradientTransform="matrix(1 0 0 -1 0 371.7252)">
			<stop  offset="0.128" style="stop-color:#2BAF89"/>
			<stop  offset="0.527" style="stop-color:#66CCCC"/>
		</linearGradient>
		<polygon class="st2" points="235.3,178.7 235.3,178.7 153.3,130.1 235.3,244.7 		"/>
		
			<linearGradient id="SVGID_4_" gradientUnits="userSpaceOnUse" x1="235.3066" y1="242.932" x2="124.9066" y2="242.932" gradientTransform="matrix(1 0 0 -1 0 371.7252)">
			<stop  offset="0.128" style="stop-color:#2BAF89"/>
			<stop  offset="0.527" style="stop-color:#66CCCC"/>
		</linearGradient>
		<polygon class="st3" points="235.3,156 124.9,90.5 138.8,109.8 235.3,167.1 		"/>
		
			<linearGradient id="SVGID_5_" gradientUnits="userSpaceOnUse" x1="235.3066" y1="242.932" x2="345.7066" y2="242.932" gradientTransform="matrix(1 0 0 -1 0 371.7252)">
			<stop  offset="0.2643" style="stop-color:#2B7853"/>
			<stop  offset="1" style="stop-color:#66CC99"/>
		</linearGradient>
		<polygon class="st4" points="235.3,167.1 331.9,109.8 345.7,90.5 235.3,156 		"/>
		
			<linearGradient id="SVGID_6_" gradientUnits="userSpaceOnUse" x1="207.0152" y1="184.332" x2="317.404" y2="184.332" gradientTransform="matrix(1 0 0 -1 0 371.7252)">
			<stop  offset="0.2643" style="stop-color:#2B7853"/>
			<stop  offset="1" style="stop-color:#66CC99"/>
		</linearGradient>
		<polygon class="st5" points="235.3,244.7 317.4,130.1 235.3,178.7 		"/>
	</g>
</g>
<g>
	<g>
		<path class="st6" d="M272,286.3c0,2.4-0.8,4.4-2.4,5.8s-3.4,2.1-5.6,2.1c-2.1,0-4-0.7-5.6-2.1s-2.4-3.3-2.4-5.8
			c0-2.4,0.8-4.4,2.4-5.8s3.4-2.1,5.6-2.1c2.1,0,4,0.7,5.6,2.1S272,283.8,272,286.3z M270.7,346.9h-13.3v-47h13.3V346.9z"/>
		<path class="st6" d="M353.8,319.9c-1.2,4.5-2.4,9-3.8,13.5c-1.3,4.5-2.7,9-4.2,13.5h-10.3c-1.1-2.5-2.2-5.5-3.5-8.9
			c-1.2-3.5-2.5-7.2-3.9-11.3c-1.3-4.1-2.7-8.4-4.1-13s-2.8-9.2-4.1-13.8h14c0.5,2.1,1,4.5,1.6,7s1.2,5.1,1.8,7.8
			c0.6,2.7,1.3,5.4,2,8.1s1.4,5.3,2.1,7.8c0.8-2.6,1.5-5.3,2.3-8c0.7-2.7,1.5-5.4,2.1-8.1c0.7-2.7,1.3-5.2,2-7.7
			c0.6-2.5,1.2-4.8,1.6-6.9h9.6c0.5,2.1,1,4.5,1.6,6.9c0.6,2.5,1.2,5,1.9,7.7c0.7,2.7,1.3,5.4,2,8.1s1.5,5.4,2.2,8
			c0.7-2.5,1.4-5.1,2.1-7.8c0.7-2.7,1.4-5.4,2-8.1s1.2-5.3,1.8-7.8c0.6-2.5,1.1-4.9,1.6-7H388c-1.3,4.6-2.7,9.3-4.1,13.8
			c-1.4,4.6-2.8,8.9-4.1,13c-1.3,4.1-2.6,7.9-3.9,11.3c-1.3,3.5-2.5,6.4-3.5,8.9H362c-1.5-4.5-2.9-9-4.4-13.5
			C356.3,328.9,354.9,324.4,353.8,319.9z"/>
		<path class="st6" d="M403.5,337.3c2.4,0,4.2-0.2,5.2-0.7s1.5-1.4,1.5-2.8c0-1.1-0.7-2-2-2.8s-3.3-1.7-6-2.7
			c-2.1-0.8-4-1.6-5.6-2.4c-1.7-0.8-3.1-1.8-4.3-3c-1.2-1.2-2.1-2.5-2.8-4.2c-0.7-1.6-1-3.5-1-5.8c0-4.4,1.6-7.9,4.9-10.5
			s7.7-3.8,13.4-3.8c2.8,0,5.6,0.3,8.2,0.8s4.7,1.1,6.2,1.7l-2.2,10.3c-1.5-0.5-3.2-1-5-1.4s-3.8-0.6-6.1-0.6
			c-4.2,0-6.2,1.2-6.2,3.5c0,0.5,0.1,1,0.3,1.4c0.2,0.4,0.5,0.8,1.1,1.2c0.5,0.4,1.3,0.8,2.2,1.3c0.9,0.5,2.1,0.9,3.5,1.5
			c2.9,1.1,5.3,2.1,7.2,3.2c1.9,1.1,3.4,2.2,4.5,3.4c1.1,1.2,1.9,2.6,2.3,4.1s0.7,3.2,0.7,5.2c0,4.6-1.7,8.1-5.2,10.5
			s-8.4,3.6-14.7,3.6c-4.2,0-7.6-0.4-10.4-1.1s-4.7-1.3-5.7-1.8l2.2-10.8c2.3,0.9,4.6,1.6,6.9,2.1
			C398.8,337.1,401.2,337.3,403.5,337.3z"/>
		<polygon class="st6" points="252.7,282.8 238.8,282.8 223.6,319.6 208.5,282.8 194.1,282.8 206.5,309.6 206.4,309.5 223.4,346.9 
			246.5,296.3 246.5,296.3 		"/>
		<g>
			<path class="st6" d="M314.2,304.8c-3.9-4.1-9.1-6.1-15.7-6.1c-2.8,0-5.6,0.5-8.3,1.6c-2.7,1.1-5.1,2.7-7.2,4.7
				c-2.1,2.1-3.8,4.7-5,7.8c-1.3,3.1-1.9,6.8-1.9,11c0,3.5,0.5,6.7,1.5,9.7s2.5,5.6,4.5,7.7c2,2.2,4.6,3.9,7.7,5.1
				c3.1,1.3,6.8,1.9,11,1.9c1.7,0,3.3-0.1,5-0.3c1.7-0.2,3.2-0.4,4.7-0.7c1.5-0.3,2.8-0.6,4-0.9c1.2-0.4,2.1-0.7,2.8-1.1l-1.8-10.8
				c-1.5,0.7-3.4,1.2-5.7,1.7c-2.3,0.4-4.7,0.7-7.2,0.7c-3.8,0-6.8-0.8-9.1-2.4c-1.2-0.9-2.2-1.9-2.8-3.2l0,0c-2-3.4-1-12.4-1-12.4
				c0.2-1.1,0.5-2.2,0.8-3.4c0.4-1.1,0.9-2.1,1.6-2.9s1.6-1.5,2.7-2s2.3-0.8,3.8-0.8s2.8,0.3,3.9,0.8c1,0.5,1.9,1.2,2.6,2.1
				c0.7,0.8,1.2,1.8,1.5,2.9s0.5,2.2,0.6,3.3H295v9.1h24.7c0.1-0.7,0.1-1.5,0.2-2.5c0.1-0.9,0.1-1.8,0.1-2.5
				C320,314.8,318,308.8,314.2,304.8z"/>
		</g>
	</g>
	<g>
		<g>
			<path class="st6" d="M80.7,293.4c-6.6,0-11.4,1.8-14.4,5.5c-2.9,3.7-4.4,8.7-4.4,15.1c0,3.1,0.4,5.9,1.1,8.4s1.8,4.7,3.3,6.5
				c1.5,1.8,3.3,3.2,5.5,4.2c2.2,1,4.7,1.5,7.7,1.5c1.6,0,2.9,0,4.1-0.1c1.1-0.1,2.1-0.2,3-0.4v-22h14.2v31.3
				c-1.7,0.7-4.4,1.4-8.2,2.1c-3.8,0.8-8.4,1.1-13.9,1.1c-4.7,0-9-0.7-12.9-2.2c-3.9-1.5-7.2-3.6-9.9-6.4c-2.7-2.8-4.8-6.2-6.3-10.3
				c-1.5-4.1-2.2-8.7-2.2-13.9c0-5.3,0.8-10,2.5-14c1.6-4.1,3.9-7.5,6.7-10.3c2.9-2.8,6.2-5,10.1-6.4c3.9-1.5,8-2.2,12.3-2.2
				c3,0,5.7,0.2,8.1,0.6c2.4,0.4,4.5,0.9,6.2,1.4c1.7,0.5,3.2,1,4.3,1.6c1.1,0.5,1.9,1,2.4,1.3l-4.1,11.4c-1.9-1-4.2-1.9-6.7-2.7
				S83.6,293.4,80.7,293.4z"/>
			<path class="st6" d="M200.9,321.6c0,3.8-0.5,7.2-1.6,10.3c-1.1,3.1-2.7,5.8-4.7,8c-2.1,2.2-4.5,3.9-7.4,5.1
				c-2.9,1.2-6.1,1.8-9.7,1.8c-3.5,0-6.7-0.6-9.6-1.8c-2.9-1.2-5.4-2.9-7.4-5.1c-2.1-2.2-3.7-4.9-4.8-8c-1.2-3.1-1.7-6.6-1.7-10.3
				c0-3.8,0.6-7.2,1.8-10.3c1.2-3.1,2.8-5.7,4.9-7.9c2.1-2.2,4.6-3.9,7.5-5.1c2.9-1.2,6-1.8,9.4-1.8c3.5,0,6.6,0.6,9.5,1.8
				c2.9,1.2,5.4,2.9,7.4,5.1c2.1,2.2,3.7,4.8,4.8,7.9C200.3,314.4,200.9,317.8,200.9,321.6z M187.1,321.6c0-4.2-0.8-7.5-2.5-9.9
				c-1.7-2.4-4.1-3.6-7.2-3.6c-3.1,0-5.5,1.2-7.2,3.6c-1.7,2.4-2.6,5.7-2.6,9.9s0.9,7.5,2.6,10c1.7,2.5,4.1,3.7,7.2,3.7
				c3.1,0,5.5-1.2,7.2-3.7C186.2,329.1,187.1,325.8,187.1,321.6z"/>
		</g>
		<g>
			<path class="st6" d="M144,304.9c-3.9-4.1-9.1-6.1-15.7-6.1c-2.8,0-5.6,0.5-8.3,1.6c-2.7,1.1-5.1,2.7-7.2,4.7
				c-2.1,2.1-3.8,4.7-5,7.8c-1.3,3.1-1.9,6.8-1.9,11c0,3.5,0.5,6.7,1.5,9.7s2.5,5.6,4.5,7.7c2,2.2,4.6,3.9,7.7,5.1
				c3.1,1.3,6.8,1.9,11,1.9c1.7,0,3.3-0.1,5-0.3c1.7-0.2,3.2-0.4,4.7-0.7c1.5-0.3,2.8-0.6,4-0.9c1.2-0.4,2.1-0.7,2.8-1.1l-1.8-10.8
				c-1.5,0.7-3.4,1.2-5.7,1.7c-2.3,0.4-4.7,0.7-7.2,0.7c-3.8,0-6.8-0.8-9.1-2.4c-1.2-0.9-2.2-1.9-2.8-3.2l0,0c-2-3.4-1-12.4-1-12.4
				c0.2-1.1,0.5-2.2,0.8-3.4c0.4-1.1,0.9-2.1,1.6-2.9s1.6-1.5,2.7-2s2.3-0.8,3.8-0.8c1.5,0,2.8,0.3,3.9,0.8c1,0.5,1.9,1.2,2.6,2.1
				c0.7,0.8,1.2,1.8,1.5,2.9s0.5,2.2,0.6,3.3h-12.2v9.1h24.7c0.1-0.7,0.1-1.5,0.2-2.5c0.1-0.9,0.1-1.8,0.1-2.5
				C149.8,314.9,147.8,308.9,144,304.9z"/>
		</g>
	</g>
</g>
</svg>
