<svg xmlns="http://www.w3.org/2000/svg" xmlns:xlink="http://www.w3.org/1999/xlink" width="100.0" height="100.0" viewBox="111.72973244023524 -40.64497716243872 43.448957226736184 31.58601207694926" preserveAspectRatio="xMinYMin meet"><g transform="matrix(1,0,0,-1,0,-49.70394224792818)"><path fill-rule="evenodd" fill="#66cc99" stroke="#555555" stroke-width="0.8689791445347237" opacity="0.6" d="M 143.56181115130002,-13.763655694232213 L 143.92209923723894,-14.548310642152003 L 144.56371382057486,-14.171176039285882 L 144.8949080751335,-14.594457696188641 L 145.37472374896348,-14.984976495018373 L 145.27199100156733,-15.428205254785794 L 145.48525963763578,-16.285672295804773 L 145.63703331927698,-16.784918308176614 L 145.8889042502677,-16.90692636481765 L 146.16030887266456,-17.761654554925244 L 146.0636739442787,-18.28007252367732 L 146.38747846901967,-18.95827402107591 L 147.47108157774792,-19.48072275154678 L 148.1776017600425,-19.95593922290277 L 148.84841352762325,-20.39120981209726 L 148.7174654481956,-20.633468926681616 L 149.28942020080214,-21.260510756111103 L 149.67833703023067,-22.342511895438392 L 150.07738244038862,-22.12278370533332 L 150.4829390810152,-22.556142266533016 L 150.72726525289121,-22.40240488046466 L 150.89955447815234,-23.462236830338682 L 151.60917524638424,-24.076256198830762 L 152.07353966695914,-24.457886651306197 L 152.85519738180594,-25.26750131602303 L 153.13616214417684,-26.07117319102619 L 153.16194868389042,-26.641319268502443 L 153.0929089703486,-27.260299574494525 L 153.56946902894416,-28.110066827102116 L 153.51210818910025,-28.995077406532758 L 153.33909549378708,-29.45820159273245 L 153.06924116435889,-30.35024016695482 L 153.08960167868182,-30.92364185966545 L 152.8915775901394,-31.640445651986056 L 152.4500024762054,-32.550002536755244 L 151.70911746643677,-33.04134205498643 L 151.34397179586242,-33.81602345147385 L 151.01055545471522,-34.310360202777986 L 150.71413943908905,-35.17345997491681 L 150.32821984273326,-35.67187916437193 L 150.07521203023228,-36.420205580390515 L 149.94612430236722,-37.109052422841245 L 149.99728397033616,-37.42526051203524 L 149.4238822776255,-37.772681166333484 L 148.30462243061592,-37.80906137466698 L 147.3817330263153,-38.21921721776755 L 146.92212283751135,-38.60653207779512 L 146.31792199115486,-39.035756524411454 L 145.48965213438058,-38.593767999019065 L 144.87697635312819,-38.417448012039216 L 145.03221235573292,-37.896187839510986 L 144.48568240781404,-38.08532358169927 L 143.6099735861961,-38.80946542740533 L 142.745426873953,-38.538267510737526 L 142.17832970598195,-38.380034275059856 L 141.60658165910476,-38.30851409276788 L 140.6385787294133,-38.01933277766257 L 139.99215823787435,-37.40293629328511 L 139.80658816951407,-36.64360279718828 L 139.5741475770653,-36.13836231867067 L 139.0828080588341,-35.73275400161178 L 138.12074791885632,-35.612296237939404 L 138.44946170466503,-35.127261244447894 L 138.2075643251067,-34.38472258884593 L 137.7191703635162,-35.07682504653103 L 136.82940555231474,-35.26053476332862 L 137.35237104710856,-34.7073385556441 L 137.50388634658836,-34.130267836240776 L 137.89011600153768,-33.640478610978434 L 137.81032759007914,-32.90000701266811 L 136.99683719294043,-33.752771498348636 L 136.37206912653167,-34.09476612725628 L 135.98904341038437,-34.8901180966605 L 135.20821251845413,-34.47867034275261 L 135.2392183778292,-33.94795338311508 L 134.61341678277464,-33.22277800876314 L 134.0859037619392,-32.84807219821478 L 134.2739026226171,-32.61723357516698 L 132.99077680880984,-32.011224053680195 L 132.28808068250495,-31.98264698662277 L 131.32633060112093,-31.495803318001066 L 129.5357938986397,-31.590422865527486 L 128.24093753470228,-31.948488864877874 L 127.10286746633832,-32.28226694105105 L 126.14871382050123,-32.21596607842061 L 125.08862348846569,-32.728751316052836 L 124.22164798390494,-32.95948658623607 L 124.0289465678886,-33.483847344701715 L 123.65966678273074,-33.890179131812744 L 122.8110364116337,-33.91446705498993 L 122.1830644064228,-34.003402194964224 L 121.2991907085026,-33.82103606540623 L 120.58026818245807,-33.93017669040664 L 119.89369510302825,-33.976065362281815 L 119.29889936734881,-34.50936614353397 L 119.00734093635802,-34.46414926527855 L 118.5057178081008,-34.7468193499151 L 118.02497195848954,-35.064732761374714 L 117.29550744025747,-35.02545867283287 L 116.625109084135,-35.02509693780685 L 115.56434695847972,-34.386427911111554 L 115.0268087097796,-34.19651702243894 L 115.04861616420683,-33.62342538832203 L 115.54512332566716,-33.48725798923296 L 115.71467370001673,-33.25957162855495 L 115.6793786967614,-32.90036874769413 L 115.80164513556397,-32.20506235120703 L 115.68961063035525,-31.61243702568379 L 115.16090905157702,-30.601594333622458 L 114.9970430847795,-30.03072478609417 L 115.04003787644635,-29.461095472940798 L 114.64197431850206,-28.810230808224716 L 114.61649783738218,-28.516398614213045 L 114.17357913620847,-28.11807667410733 L 114.04888390508822,-27.33476531342714 L 113.47749759323696,-26.543134047147902 L 113.3389530782625,-26.116545098578484 L 113.77835778204027,-26.54902516042918 L 113.44096235560662,-25.62127817149316 L 113.93690107631167,-25.9112346330829 L 114.23285200404726,-26.298446140245886 L 114.21616051641698,-25.786281019801123 L 113.72125532435777,-24.998938897402127 L 113.62534386602405,-24.683971042583153 L 113.39352339076268,-24.38476449961327 L 113.50204389857558,-23.806350192970257 L 113.70699262904517,-23.560215345964068 L 113.8434184102957,-23.05998748137874 L 113.73655154831616,-22.47547535572538 L 114.14975630092201,-21.755881036061012 L 114.22530724493268,-22.517488295178723 L 114.64776207891882,-21.829519952077007 L 115.46016727097933,-21.49517343514856 L 115.94737267462702,-21.06868783944371 L 116.71161543179156,-20.701681817306834 L 117.16631635952771,-20.62359872811382 L 117.44154503791432,-20.74689869556225 L 118.22955895393298,-20.374208265873236 L 118.83608523974274,-20.263310642174844 L 118.98780724495177,-20.044202569257322 L 119.25249393115072,-19.95294198982984 L 119.80522505094459,-19.976506442954985 L 120.85622033089672,-19.68370777758919 L 121.39985639860723,-19.239755547769732 L 121.65513797412908,-18.705317885007133 L 122.24166548064184,-18.197648614171854 L 122.28662397673574,-17.798603204014015 L 122.31277225147542,-17.254967136303463 L 123.01257449757193,-16.40519988369587 L 123.43378909718311,-17.26855803799623 L 123.85934451710668,-17.069035332917267 L 123.50324222218327,-16.596506036040466 L 123.81707319549187,-16.111316013251994 L 124.25828657439988,-16.327943617419564 L 124.37972619028582,-15.567059828353976 L 124.92615278534012,-15.075100192935409 L 125.16727501841396,-14.68039560309009 L 125.67008670461385,-14.510070082256021 L 125.68579634003052,-14.230655612853838 L 126.12514936737611,-14.347340996968953 L 126.14282270721989,-14.095986830301229 L 126.58258914602376,-13.952791436420497 L 127.06586714081735,-13.817967624570926 L 127.80463341686195,-14.276906019755131 L 128.35968997610897,-14.869169610252271 L 128.98554324759593,-14.875990899314758 L 129.62147342337963,-14.969783623924556 L 129.40960005098302,-14.420669854391122 L 129.88864057832862,-13.618703301653497 L 130.33946577364296,-13.357375583553477 L 130.18350630098607,-13.107520033422304 L 130.61779503796706,-12.536392103732481 L 131.22349450086003,-12.183648776908214 L 131.73509118054952,-12.302452894747162 L 132.57529829318312,-12.114040622611014 L 132.55721154188106,-11.603012383676699 L 131.82469811414373,-11.2737818335452 L 132.35722374891142,-11.128519382372744 L 133.01956058159644,-11.376411228076847 L 133.5508459819891,-11.786515394745138 L 134.393068475482,-12.042365411022175 L 134.678632440327,-11.941182956594702 L 135.29849124566803,-12.248606052299053 L 135.8826933127277,-11.962266940969798 L 136.25838097548947,-12.04934172938161 L 136.49247521377166,-11.857208754120393 L 136.95162031468502,-12.351958916882836 L 136.68512495335577,-12.887223402562057 L 136.30540652887518,-13.291229750219898 L 135.9617582541342,-13.324509372615893 L 136.07761681533256,-13.724278252825783 L 135.78383629775325,-14.223989353088214 L 135.42866417861123,-14.7154322241839 L 135.50018436090326,-14.997740573794445 L 136.2951745952814,-15.550264987859123 L 137.0653601421595,-15.870762220933358 L 137.58047081924482,-16.215082289294088 L 138.30321740127906,-16.80760426195276 L 138.5851640158634,-16.806622409739177 L 139.10854292211556,-17.06267913174537 L 139.26057498591823,-17.371600843986187 L 140.21524539607825,-17.710804945550066 L 140.87546349503927,-17.369068698803943 L 141.0711104676963,-16.832047214426723 L 141.27409549373883,-16.388870131091693 L 141.39822228410387,-15.840531508042588 L 141.70218305884467,-15.044921156476931 L 141.5633801617087,-14.56133310308961 L 141.63552046118812,-14.270394789286286 L 141.51986860571898,-13.698078301653823 L 141.6509200380111,-12.944687595270565 L 141.8426912782463,-12.74154753993129 L 141.68699018775087,-12.407614434461152 L 141.92862918514757,-11.877465915578796 L 142.11848839738806,-11.328042087451621 L 142.14370649634637,-11.042736504768243 L 142.51526004452498,-10.668185723516729 L 142.79731001197408,-11.157354831591533 L 142.8667631369743,-11.784706719614931 L 143.1159468934857,-11.905629571177911 L 143.1586316265588,-12.325655612846205 L 143.5221236512999,-12.834358412327433 L 143.59715783098764,-13.400422051652598 L 143.56181115130002,-13.763655694232213 z" /></g></svg>