<?xml version="1.0" encoding="UTF-8" standalone="no"?>
<svg
   xmlns:dc="http://purl.org/dc/elements/1.1/"
   xmlns:cc="http://creativecommons.org/ns#"
   xmlns:rdf="http://www.w3.org/1999/02/22-rdf-syntax-ns#"
   xmlns:svg="http://www.w3.org/2000/svg"
   xmlns="http://www.w3.org/2000/svg"
   xmlns:sodipodi="http://sodipodi.sourceforge.net/DTD/sodipodi-0.dtd"
   xmlns:inkscape="http://www.inkscape.org/namespaces/inkscape"
   inkscape:version="1.0beta1 (32d4812, 2019-09-19)"
   height="301.5"
   width="376.10001"
   sodipodi:docname="logo_stacked.svg"
   xml:space="preserve"
   viewBox="0 0 376.10001 301.5"
   y="0px"
   x="0px"
   id="Layer_2"
   version="1.1"><metadata
   id="metadata3327">
  <rdf:RDF>
    <cc:Work
       rdf:about="">
      <dc:format>image/svg+xml</dc:format>
      <dc:type
         rdf:resource="http://purl.org/dc/dcmitype/StillImage" />
      <dc:title></dc:title>
    </cc:Work>
  </rdf:RDF>
</metadata>
<defs
   id="defs3325" />
<sodipodi:namedview
   inkscape:current-layer="Layer_2"
   inkscape:window-maximized="0"
   inkscape:window-y="23"
   inkscape:window-x="0"
   inkscape:cy="152.65"
   inkscape:cx="-12.416728"
   inkscape:zoom="0.68187517"
   fit-margin-bottom="0"
   fit-margin-right="0"
   fit-margin-left="0"
   fit-margin-top="0"
   showgrid="false"
   id="namedview3323"
   inkscape:window-height="613"
   inkscape:window-width="1320"
   inkscape:pageshadow="2"
   inkscape:pageopacity="0"
   guidetolerance="10"
   gridtolerance="10"
   objecttolerance="10"
   borderopacity="1"
   inkscape:document-rotation="0"
   bordercolor="#666666"
   pagecolor="#ffffff" />

<style
   id="style3228"
   type="text/css">
	.st0{fill:url(#SVGID_1_);}
	.st1{fill:url(#SVGID_2_);}
	.st2{fill:url(#SVGID_3_);}
	.st3{fill:url(#SVGID_4_);}
	.st4{fill:url(#SVGID_5_);}
	.st5{fill:url(#SVGID_6_);}
	.st6{fill:#2BAF89;}
	.st7{fill:url(#SVGID_7_);}
	.st8{opacity:0.2;fill:url(#SVGID_8_);enable-background:new    ;}
	.st9{fill:url(#SVGID_9_);}
	.st10{opacity:0.2;fill:url(#SVGID_10_);enable-background:new    ;}
	.st11{fill:url(#SVGID_11_);}
	.st12{fill:url(#SVGID_12_);}
	.st13{fill:url(#SVGID_13_);}
	.st14{fill:url(#SVGID_14_);}
	.st15{fill:#BF202E;}
	.st16{fill:url(#SVGID_15_);}
	.st17{fill:url(#SVGID_16_);}
	.st18{fill:url(#SVGID_17_);}
	.st19{fill:url(#SVGID_18_);}
	.st20{fill:url(#SVGID_19_);}
	.st21{fill:url(#SVGID_20_);}
	.st22{fill:url(#SVGID_21_);}
	.st23{opacity:0.2;fill:url(#SVGID_22_);enable-background:new    ;}
	.st24{fill:url(#SVGID_23_);}
	.st25{opacity:0.2;fill:url(#SVGID_24_);enable-background:new    ;}
	.st26{fill:url(#SVGID_25_);}
	.st27{fill:url(#SVGID_26_);}
	.st28{fill:url(#SVGID_27_);}
	.st29{fill:url(#SVGID_28_);}
	.st30{fill:url(#SVGID_29_);}
	.st31{fill:url(#SVGID_30_);}
	.st32{fill:url(#SVGID_31_);}
	.st33{fill:url(#SVGID_32_);}
	.st34{fill:url(#SVGID_33_);}
	.st35{fill:url(#SVGID_34_);}
	.st36{fill:#333399;}
	.st37{fill:#2B7853;}
	.st38{fill:url(#SVGID_35_);}
	.st39{fill:url(#SVGID_36_);}
	.st40{fill:url(#SVGID_37_);}
	.st41{fill:url(#SVGID_38_);}
	.st42{fill:url(#SVGID_39_);}
	.st43{fill:url(#SVGID_40_);}
	.st44{fill:#FFFFFF;}
	.st45{fill:url(#SVGID_41_);}
	.st46{fill:url(#SVGID_42_);}
	.st47{fill:url(#SVGID_43_);}
	.st48{fill:url(#SVGID_44_);}
	.st49{fill:url(#SVGID_45_);}
	.st50{fill:url(#SVGID_46_);}
	.st51{fill:url(#SVGID_47_);}
	.st52{fill:url(#SVGID_48_);}
	.st53{fill:url(#SVGID_49_);}
	.st54{fill:url(#SVGID_50_);}
	.st55{fill:url(#SVGID_51_);}
	.st56{fill:url(#SVGID_52_);}
	.st57{fill:url(#SVGID_53_);}
	.st58{fill:url(#SVGID_54_);}
	.st59{fill:url(#SVGID_55_);}
	.st60{fill:url(#SVGID_56_);}
	.st61{fill:url(#SVGID_57_);}
	.st62{fill:url(#SVGID_58_);}
	.st63{fill:url(#SVGID_59_);}
	.st64{fill:url(#SVGID_60_);}
	.st65{fill:url(#SVGID_61_);}
	.st66{fill:url(#SVGID_62_);}
	.st67{fill:url(#SVGID_63_);}
	.st68{fill:url(#SVGID_64_);}
	.st69{fill:url(#SVGID_65_);}
	.st70{fill:url(#SVGID_66_);}
	.st71{fill:url(#SVGID_67_);}
	.st72{fill:url(#SVGID_68_);}
	.st73{fill:url(#SVGID_69_);}
	.st74{fill:url(#SVGID_70_);}
	.st75{fill:url(#SVGID_71_);}
	.st76{fill:url(#SVGID_72_);}
	.st77{fill:url(#SVGID_73_);}
	.st78{fill:url(#SVGID_74_);}
	.st79{fill:url(#SVGID_75_);}
	.st80{fill:url(#SVGID_76_);}
	.st81{fill:url(#SVGID_77_);}
	.st82{fill:url(#SVGID_78_);}
	.st83{fill:url(#SVGID_79_);}
	.st84{fill:url(#SVGID_80_);}
	.st85{fill:url(#SVGID_81_);}
	.st86{fill:url(#SVGID_82_);}
</style>


<g
   transform="matrix(0.99502488,0,0,0.99502488,-47.164179,-46.567164)"
   id="g3378">
  <g
     id="g3292">
	<g
   id="g3260">
		<linearGradient
   id="SVGID_1_"
   gradientUnits="userSpaceOnUse"
   x1="257.93051"
   y1="30.356001"
   x2="316.8533"
   y2="111.4563">
			<stop
   offset="0"
   style="stop-color:#66B0FF"
   id="stop3230" />

			<stop
   offset="0.1431"
   style="stop-color:#63A9F9"
   id="stop3232" />

			<stop
   offset="0.3476"
   style="stop-color:#5C96EA"
   id="stop3234" />

			<stop
   offset="0.5889"
   style="stop-color:#4F78D1"
   id="stop3236" />

			<stop
   offset="0.8563"
   style="stop-color:#3E4DAE"
   id="stop3238" />

			<stop
   offset="1"
   style="stop-color:#333399"
   id="stop3240" />

		</linearGradient>

		<polygon
   style="fill:url(#SVGID_1_)"
   class="st0"
   points="235.3,59.9 332.4,98.3 345.7,90.5 235.3,46.8 "
   id="polygon3243" />

		<linearGradient
   id="SVGID_2_"
   gradientUnits="userSpaceOnUse"
   x1="235.12691"
   y1="70.8237"
   x2="281.12381"
   y2="134.133">
			<stop
   offset="0"
   style="stop-color:#66B0FF"
   id="stop3245" />

			<stop
   offset="0.1431"
   style="stop-color:#63A9F9"
   id="stop3247" />

			<stop
   offset="0.3476"
   style="stop-color:#5C96EA"
   id="stop3249" />

			<stop
   offset="0.5889"
   style="stop-color:#4F78D1"
   id="stop3251" />

			<stop
   offset="0.8563"
   style="stop-color:#3E4DAE"
   id="stop3253" />

			<stop
   offset="1"
   style="stop-color:#333399"
   id="stop3255" />

		</linearGradient>

		<polygon
   style="fill:url(#SVGID_2_)"
   class="st1"
   points="235.3,156 321.5,104.8 235.3,70.7 "
   id="polygon3258" />

	</g>

	<g
   id="g3290">
		
			<linearGradient
   id="SVGID_3_"
   gradientUnits="userSpaceOnUse"
   x1="235.30659"
   y1="184.332"
   x2="124.9446"
   y2="184.332"
   gradientTransform="matrix(1,0,0,-1,0,371.7252)">
			<stop
   offset="0.128"
   style="stop-color:#2BAF89"
   id="stop3262" />

			<stop
   offset="0.527"
   style="stop-color:#66CCCC"
   id="stop3264" />

		</linearGradient>

		<polygon
   style="fill:url(#SVGID_3_)"
   class="st2"
   points="235.3,244.7 235.3,178.7 153.3,130.1 "
   id="polygon3267" />

		
			<linearGradient
   id="SVGID_4_"
   gradientUnits="userSpaceOnUse"
   x1="235.30659"
   y1="242.93201"
   x2="124.9066"
   y2="242.93201"
   gradientTransform="matrix(1,0,0,-1,0,371.7252)">
			<stop
   offset="0.128"
   style="stop-color:#2BAF89"
   id="stop3269" />

			<stop
   offset="0.527"
   style="stop-color:#66CCCC"
   id="stop3271" />

		</linearGradient>

		<polygon
   style="fill:url(#SVGID_4_)"
   class="st3"
   points="138.8,109.8 235.3,167.1 235.3,156 124.9,90.5 "
   id="polygon3274" />

		
			<linearGradient
   id="SVGID_5_"
   gradientUnits="userSpaceOnUse"
   x1="235.30659"
   y1="242.93201"
   x2="345.7066"
   y2="242.93201"
   gradientTransform="matrix(1,0,0,-1,0,371.7252)">
			<stop
   offset="0.2643"
   style="stop-color:#2B7853"
   id="stop3276" />

			<stop
   offset="1"
   style="stop-color:#66CC99"
   id="stop3278" />

		</linearGradient>

		<polygon
   style="fill:url(#SVGID_5_)"
   class="st4"
   points="345.7,90.5 235.3,156 235.3,167.1 331.9,109.8 "
   id="polygon3281" />

		
			<linearGradient
   id="SVGID_6_"
   gradientUnits="userSpaceOnUse"
   x1="207.0152"
   y1="184.332"
   x2="317.40399"
   y2="184.332"
   gradientTransform="matrix(1,0,0,-1,0,371.7252)">
			<stop
   offset="0.2643"
   style="stop-color:#2B7853"
   id="stop3283" />

			<stop
   offset="1"
   style="stop-color:#66CC99"
   id="stop3285" />

		</linearGradient>

		<polygon
   style="fill:url(#SVGID_6_)"
   class="st5"
   points="235.3,244.7 317.4,130.1 235.3,178.7 "
   id="polygon3288" />

	</g>

</g>
  <g
     id="g3320">
	<g
   id="g3306">
		<path
   inkscape:connector-curvature="0"
   class="st6"
   d="m 272,286.3 c 0,2.4 -0.8,4.4 -2.4,5.8 -1.6,1.4 -3.4,2.1 -5.6,2.1 -2.1,0 -4,-0.7 -5.6,-2.1 -1.6,-1.4 -2.4,-3.3 -2.4,-5.8 0,-2.4 0.8,-4.4 2.4,-5.8 1.6,-1.4 3.4,-2.1 5.6,-2.1 2.1,0 4,0.7 5.6,2.1 1.6,1.4 2.4,3.3 2.4,5.8 z m -1.3,60.6 h -13.3 v -47 h 13.3 z"
   id="path3294" />

		<path
   inkscape:connector-curvature="0"
   class="st6"
   d="m 353.8,319.9 c -1.2,4.5 -2.4,9 -3.8,13.5 -1.3,4.5 -2.7,9 -4.2,13.5 h -10.3 c -1.1,-2.5 -2.2,-5.5 -3.5,-8.9 -1.2,-3.5 -2.5,-7.2 -3.9,-11.3 -1.3,-4.1 -2.7,-8.4 -4.1,-13 -1.4,-4.6 -2.8,-9.2 -4.1,-13.8 h 14 c 0.5,2.1 1,4.5 1.6,7 0.6,2.5 1.2,5.1 1.8,7.8 0.6,2.7 1.3,5.4 2,8.1 0.7,2.7 1.4,5.3 2.1,7.8 0.8,-2.6 1.5,-5.3 2.3,-8 0.7,-2.7 1.5,-5.4 2.1,-8.1 0.7,-2.7 1.3,-5.2 2,-7.7 0.6,-2.5 1.2,-4.8 1.6,-6.9 h 9.6 c 0.5,2.1 1,4.5 1.6,6.9 0.6,2.5 1.2,5 1.9,7.7 0.7,2.7 1.3,5.4 2,8.1 0.7,2.7 1.5,5.4 2.2,8 0.7,-2.5 1.4,-5.1 2.1,-7.8 0.7,-2.7 1.4,-5.4 2,-8.1 0.6,-2.7 1.2,-5.3 1.8,-7.8 0.6,-2.5 1.1,-4.9 1.6,-7 H 388 c -1.3,4.6 -2.7,9.3 -4.1,13.8 -1.4,4.6 -2.8,8.9 -4.1,13 -1.3,4.1 -2.6,7.9 -3.9,11.3 -1.3,3.5 -2.5,6.4 -3.5,8.9 H 362 c -1.5,-4.5 -2.9,-9 -4.4,-13.5 -1.3,-4.5 -2.7,-9 -3.8,-13.5 z"
   id="path3296" />

		<path
   inkscape:connector-curvature="0"
   class="st6"
   d="m 403.5,337.3 c 2.4,0 4.2,-0.2 5.2,-0.7 1,-0.5 1.5,-1.4 1.5,-2.8 0,-1.1 -0.7,-2 -2,-2.8 -1.3,-0.8 -3.3,-1.7 -6,-2.7 -2.1,-0.8 -4,-1.6 -5.6,-2.4 -1.7,-0.8 -3.1,-1.8 -4.3,-3 -1.2,-1.2 -2.1,-2.5 -2.8,-4.2 -0.7,-1.6 -1,-3.5 -1,-5.8 0,-4.4 1.6,-7.9 4.9,-10.5 3.3,-2.6 7.7,-3.8 13.4,-3.8 2.8,0 5.6,0.3 8.2,0.8 2.6,0.5 4.7,1.1 6.2,1.7 l -2.2,10.3 c -1.5,-0.5 -3.2,-1 -5,-1.4 -1.8,-0.4 -3.8,-0.6 -6.1,-0.6 -4.2,0 -6.2,1.2 -6.2,3.5 0,0.5 0.1,1 0.3,1.4 0.2,0.4 0.5,0.8 1.1,1.2 0.5,0.4 1.3,0.8 2.2,1.3 0.9,0.5 2.1,0.9 3.5,1.5 2.9,1.1 5.3,2.1 7.2,3.2 1.9,1.1 3.4,2.2 4.5,3.4 1.1,1.2 1.9,2.6 2.3,4.1 0.4,1.5 0.7,3.2 0.7,5.2 0,4.6 -1.7,8.1 -5.2,10.5 -3.5,2.4 -8.4,3.6 -14.7,3.6 -4.2,0 -7.6,-0.4 -10.4,-1.1 -2.8,-0.7 -4.7,-1.3 -5.7,-1.8 l 2.2,-10.8 c 2.3,0.9 4.6,1.6 6.9,2.1 2.2,0.4 4.6,0.6 6.9,0.6 z"
   id="path3298" />

		<polygon
   class="st6"
   points="206.4,309.5 223.4,346.9 246.5,296.3 246.5,296.3 252.7,282.8 238.8,282.8 223.6,319.6 208.5,282.8 194.1,282.8 206.5,309.6 "
   id="polygon3300" />

		<g
   id="g3304">
			<path
   inkscape:connector-curvature="0"
   class="st6"
   d="m 314.2,304.8 c -3.9,-4.1 -9.1,-6.1 -15.7,-6.1 -2.8,0 -5.6,0.5 -8.3,1.6 -2.7,1.1 -5.1,2.7 -7.2,4.7 -2.1,2.1 -3.8,4.7 -5,7.8 -1.3,3.1 -1.9,6.8 -1.9,11 0,3.5 0.5,6.7 1.5,9.7 1,3 2.5,5.6 4.5,7.7 2,2.2 4.6,3.9 7.7,5.1 3.1,1.3 6.8,1.9 11,1.9 1.7,0 3.3,-0.1 5,-0.3 1.7,-0.2 3.2,-0.4 4.7,-0.7 1.5,-0.3 2.8,-0.6 4,-0.9 1.2,-0.4 2.1,-0.7 2.8,-1.1 l -1.8,-10.8 c -1.5,0.7 -3.4,1.2 -5.7,1.7 -2.3,0.4 -4.7,0.7 -7.2,0.7 -3.8,0 -6.8,-0.8 -9.1,-2.4 -1.2,-0.9 -2.2,-1.9 -2.8,-3.2 v 0 c -2,-3.4 -1,-12.4 -1,-12.4 0.2,-1.1 0.5,-2.2 0.8,-3.4 0.4,-1.1 0.9,-2.1 1.6,-2.9 0.7,-0.8 1.6,-1.5 2.7,-2 1.1,-0.5 2.3,-0.8 3.8,-0.8 1.5,0 2.8,0.3 3.9,0.8 1,0.5 1.9,1.2 2.6,2.1 0.7,0.8 1.2,1.8 1.5,2.9 0.3,1.1 0.5,2.2 0.6,3.3 H 295 v 9.1 h 24.7 c 0.1,-0.7 0.1,-1.5 0.2,-2.5 0.1,-0.9 0.1,-1.8 0.1,-2.5 0,-8.1 -2,-14.1 -5.8,-18.1 z"
   id="path3302" />

		</g>

	</g>

	<g
   id="g3318">
		<g
   id="g3312">
			<path
   inkscape:connector-curvature="0"
   class="st6"
   d="m 80.7,293.4 c -6.6,0 -11.4,1.8 -14.4,5.5 -2.9,3.7 -4.4,8.7 -4.4,15.1 0,3.1 0.4,5.9 1.1,8.4 0.7,2.5 1.8,4.7 3.3,6.5 1.5,1.8 3.3,3.2 5.5,4.2 2.2,1 4.7,1.5 7.7,1.5 1.6,0 2.9,0 4.1,-0.1 1.1,-0.1 2.1,-0.2 3,-0.4 v -22 h 14.2 v 31.3 c -1.7,0.7 -4.4,1.4 -8.2,2.1 -3.8,0.8 -8.4,1.1 -13.9,1.1 -4.7,0 -9,-0.7 -12.9,-2.2 -3.9,-1.5 -7.2,-3.6 -9.9,-6.4 -2.7,-2.8 -4.8,-6.2 -6.3,-10.3 -1.5,-4.1 -2.2,-8.7 -2.2,-13.9 0,-5.3 0.8,-10 2.5,-14 1.6,-4.1 3.9,-7.5 6.7,-10.3 2.9,-2.8 6.2,-5 10.1,-6.4 3.9,-1.5 8,-2.2 12.3,-2.2 3,0 5.7,0.2 8.1,0.6 2.4,0.4 4.5,0.9 6.2,1.4 1.7,0.5 3.2,1 4.3,1.6 1.1,0.5 1.9,1 2.4,1.3 l -4.1,11.4 c -1.9,-1 -4.2,-1.9 -6.7,-2.7 -2.5,-0.8 -5.6,-1.1 -8.5,-1.1 z"
   id="path3308" />

			<path
   inkscape:connector-curvature="0"
   class="st6"
   d="m 200.9,321.6 c 0,3.8 -0.5,7.2 -1.6,10.3 -1.1,3.1 -2.7,5.8 -4.7,8 -2.1,2.2 -4.5,3.9 -7.4,5.1 -2.9,1.2 -6.1,1.8 -9.7,1.8 -3.5,0 -6.7,-0.6 -9.6,-1.8 -2.9,-1.2 -5.4,-2.9 -7.4,-5.1 -2.1,-2.2 -3.7,-4.9 -4.8,-8 -1.2,-3.1 -1.7,-6.6 -1.7,-10.3 0,-3.8 0.6,-7.2 1.8,-10.3 1.2,-3.1 2.8,-5.7 4.9,-7.9 2.1,-2.2 4.6,-3.9 7.5,-5.1 2.9,-1.2 6,-1.8 9.4,-1.8 3.5,0 6.6,0.6 9.5,1.8 2.9,1.2 5.4,2.9 7.4,5.1 2.1,2.2 3.7,4.8 4.8,7.9 1,3.1 1.6,6.5 1.6,10.3 z m -13.8,0 c 0,-4.2 -0.8,-7.5 -2.5,-9.9 -1.7,-2.4 -4.1,-3.6 -7.2,-3.6 -3.1,0 -5.5,1.2 -7.2,3.6 -1.7,2.4 -2.6,5.7 -2.6,9.9 0,4.2 0.9,7.5 2.6,10 1.7,2.5 4.1,3.7 7.2,3.7 3.1,0 5.5,-1.2 7.2,-3.7 1.6,-2.5 2.5,-5.8 2.5,-10 z"
   id="path3310" />

		</g>

		<g
   id="g3316">
			<path
   inkscape:connector-curvature="0"
   class="st6"
   d="m 144,304.9 c -3.9,-4.1 -9.1,-6.1 -15.7,-6.1 -2.8,0 -5.6,0.5 -8.3,1.6 -2.7,1.1 -5.1,2.7 -7.2,4.7 -2.1,2.1 -3.8,4.7 -5,7.8 -1.3,3.1 -1.9,6.8 -1.9,11 0,3.5 0.5,6.7 1.5,9.7 1,3 2.5,5.6 4.5,7.7 2,2.2 4.6,3.9 7.7,5.1 3.1,1.3 6.8,1.9 11,1.9 1.7,0 3.3,-0.1 5,-0.3 1.7,-0.2 3.2,-0.4 4.7,-0.7 1.5,-0.3 2.8,-0.6 4,-0.9 1.2,-0.4 2.1,-0.7 2.8,-1.1 l -1.8,-10.8 c -1.5,0.7 -3.4,1.2 -5.7,1.7 -2.3,0.4 -4.7,0.7 -7.2,0.7 -3.8,0 -6.8,-0.8 -9.1,-2.4 -1.2,-0.9 -2.2,-1.9 -2.8,-3.2 v 0 c -2,-3.4 -1,-12.4 -1,-12.4 0.2,-1.1 0.5,-2.2 0.8,-3.4 0.4,-1.1 0.9,-2.1 1.6,-2.9 0.7,-0.8 1.6,-1.5 2.7,-2 1.1,-0.5 2.3,-0.8 3.8,-0.8 1.5,0 2.8,0.3 3.9,0.8 1,0.5 1.9,1.2 2.6,2.1 0.7,0.8 1.2,1.8 1.5,2.9 0.3,1.1 0.5,2.2 0.6,3.3 h -12.2 v 9.1 h 24.7 c 0.1,-0.7 0.1,-1.5 0.2,-2.5 0.1,-0.9 0.1,-1.8 0.1,-2.5 0,-8.1 -2,-14.1 -5.8,-18.1 z"
   id="path3314" />

		</g>

	</g>

</g>
</g>

</svg>
